<?xml version="1.0" encoding="UTF-8"?>
<svg enable-background="new 0 0 512 512" version="1.1" viewBox="0 0 512 512" xml:space="preserve" xmlns="http://www.w3.org/2000/svg">
		<path d="m512 331.01h-503.01l-8.986 26.174s6.735 17.964 71.857 17.964h387.18c-1e-3 0 53.106-3.311 52.965-44.138" fill="#c62828"/>
		<path d="m251.27 203.32c-6.894-6.886-6.894-18.07 0-24.964l18.732-18.723c6.886-6.894 18.07-6.894 24.964 0s6.894 18.07 0 24.964l-18.723 18.723c-6.903 6.894-18.079 6.894-24.973 0" fill="#DEDEE1"/>
		<path d="m304.24 246.39c-6.894-6.894-6.894-18.07 0-24.964l18.732-18.723c6.886-6.894 18.07-6.894 24.964 0 6.894 6.886 6.894 18.07 0 24.964l-18.723 18.723c-6.902 6.894-18.078 6.894-24.973 0" fill="#DEDEE1"/>
	<path d="m404.21 258.37c-11.308-2.428-32.538-14.548-56.717-30.27l-18.291 18.291c-6.894 6.894-18.07 6.894-24.964 0-6.894-6.903-6.894-18.07 0-24.973l13.427-13.418c-9.066-6.303-18.15-12.756-26.977-19.129l-14.451 14.451c-6.894 6.894-18.07 6.894-24.964 0s-6.894-18.07 0-24.964l10.593-10.602c-15.828-11.767-29.149-21.919-37.367-28.239-5.129-3.937-12.359-3.452-16.931 1.121l-18.132 18.132c-5.402 5.402-5.402 14.159 0 19.571l4.935 4.926c6.082 6.091 4.326 16.587-3.584 19.986-87.164 37.429-127.91-34.701-127.91-34.701-29.194-5.246-53.894 162.46-53.894 162.46h503.01c-1e-3 -65.871-69.615-64.397-107.78-72.642" fill="#f9f9f9"/>
	<g>
		<path d="m471.7 272.82c-22.043-8.642-48.605-10.372-67.487-14.451-8.951-1.924-24.17-9.975-42.108-21.027 1.801 32.521 28.654 58.359 61.617 58.359 19.376 0 36.652-8.933 47.978-22.881" fill="#c62828"/>
		<path d="m70.621 269.21c32.115 0 58.492-24.505 61.493-55.835-46.91-5.385-69.235-44.826-69.235-44.826-14.707-2.639-28.266 38.603-38.109 80.19 11.308 12.544 27.631 20.471 45.851 20.471" fill="#c62828"/>
		<path d="m238.39 304.56c-0.803 0-1.615-0.106-2.419-0.335-4.696-1.333-7.415-6.223-6.073-10.911l9.419-33.086-47.386 41.463c-1.024 1.121-2.33 1.969-3.822 2.445-2.816 0.909-5.897 0.335-8.201-1.509-2.039-1.633-3.275-4.105-3.337-6.709-0.018-1.174 0.177-2.322 0.583-3.381l17.39-61.052c1.342-4.696 6.232-7.442 10.911-6.073 4.687 1.342 7.406 6.223 6.073 10.92l-9.401 32.989 48.057-42.063c2.948-2.56 7.247-2.904 10.54-0.812 3.302 2.101 4.838 6.118 3.769 9.887l-17.62 61.82c-1.103 3.882-4.634 6.407-8.483 6.407" fill="#1a1a1a"/>
	</g>
</svg>
