<?xml version="1.0" encoding="UTF-8"?>
<svg width="293" height="69" version="1.1" viewBox="0 0 77.522823 18.256284" xmlns="http://www.w3.org/2000/svg" xmlns:xlink="http://www.w3.org/1999/xlink">
<defs>
<style>.cls-1,.cls-2{fill:none;stroke:#000;stroke-linecap:round;stroke-linejoin:round;stroke-width:1.5px;}.cls-2{fill-rule:evenodd;}</style>
<style>.cls-1,.cls-2{fill:none;stroke:#000;stroke-linecap:round;stroke-linejoin:round;stroke-width:1.5px;}.cls-2{fill-rule:evenodd;}</style>
<style>.cls-1{opacity:0.15;fill:url(#b);}.cls-2{fill:#2a94f4;}</style>
<linearGradient id="b" x1="572.82" x2="265.22" y1="655.16" y2="122.38" gradientUnits="userSpaceOnUse">
<stop stop-color="#43aced" stop-opacity="0" offset="0"/>
<stop stop-color="#231f20" offset="1"/>
</linearGradient>
</defs>
<text x="1.0952778" y="8.58533" font-family="Lato" font-size="6.649px" stroke-width=".20778" style="line-height:1.25" xml:space="preserve"><tspan x="1.0952778" y="8.58533" font-family="Lato" font-weight="900" stroke-width=".20778"/></text>
<g style="mix-blend-mode:multiply">
<symbol transform="matrix(.26458 0 0 .26458 -7.7147e-5 0)" viewBox="0 0 64 64">
<title>Shopping Cart</title>
<desc>A line styled icon from Orion Icon Library.</desc>
<circle cx="23" cy="56" r="4" fill="none" stroke="#202020" stroke-linecap="round" stroke-linejoin="round" stroke-miterlimit="10" stroke-width="2" data-name="layer2"/>
<circle cx="49" cy="56" r="4" fill="none" stroke="#202020" stroke-linecap="round" stroke-linejoin="round" stroke-miterlimit="10" stroke-width="2" data-name="layer2"/>
<path d="m3 4h8l4 16h46l-8 24h-30a4 4 0 0 0 -4 4 4 4 0 0 0 4 4h32" fill="none" stroke="#202020" stroke-linecap="round" stroke-linejoin="round" stroke-miterlimit="10" stroke-width="2" data-name="layer1"/>
</symbol>
</g>
<text x="1.0766528" y="15.225431" fill="#ffffff" font-family="Lato" font-size="14.111px" stroke-width=".30069" style="line-height:1.25" xml:space="preserve"><tspan x="1.0766528" y="15.225431" fill="#ffffff" font-family="Newake" font-size="14.111px" stroke-width=".30069">SNKRSWorld</tspan></text>
<ellipse cx="17.041" cy="7.5105" rx="7.7177" ry="8.9609" fill-opacity="0" stroke-width=".30057" style="paint-order:fill markers stroke"/>
<ellipse cx="26.313" cy="-2.9006" rx="7.4587" ry="2.797" fill="none" stroke-width=".30057" style="paint-order:fill markers stroke"/>
<path d="m12.82 13.045c-1.0966-0.33144-1.6-1.9146-0.92431-2.907 0.39913-0.58621 0.73665-0.76299 1.4568-0.76299 0.529 0 0.72428 0.050859 1.0676 0.27805 0.57674 0.38167 0.90145 1.0632 0.83518 1.7529-0.10895 1.1339-1.3478 1.9677-2.4352 1.639z" fill-opacity="0" stroke-width=".11768" style="paint-order:fill markers stroke"/>
<path d="m12.82 13.045c-1.0966-0.33144-1.6-1.9146-0.92431-2.907 0.39913-0.58621 0.73665-0.76299 1.4568-0.76299 0.529 0 0.72428 0.050859 1.0676 0.27805 0.57674 0.38167 0.90145 1.0632 0.83518 1.7529-0.10895 1.1339-1.3478 1.9677-2.4352 1.639z" fill-opacity="0" stroke-width=".11768" style="paint-order:fill markers stroke"/>
<path d="m12.82 13.045c-1.0966-0.33144-1.6-1.9146-0.92431-2.907 0.39913-0.58621 0.73665-0.76299 1.4568-0.76299 0.529 0 0.72428 0.050859 1.0676 0.27805 0.57674 0.38167 0.90145 1.0632 0.83518 1.7529-0.10895 1.1339-1.3478 1.9677-2.4352 1.639z" fill-opacity="0" stroke-width=".11768" style="paint-order:fill markers stroke"/>
<path d="m21.573 15.33c-1.0073-0.25454-2.1962-1.1353-2.7055-2.0042-1.2398-2.1155-0.37509-4.8311 1.8781-5.8984 0.65361-0.30962 0.77122-0.33079 1.8378-0.33079 1.05 0 1.1884 0.023868 1.7611 0.30384 0.80268 0.39237 1.6929 1.2855 2.072 2.0788 0.41303 0.86424 0.48484 2.2136 0.16322 3.0669-0.46736 1.2401-1.3506 2.1527-2.5135 2.5969-0.62612 0.23921-1.9065 0.33521-2.4933 0.18693zm1.7365-2.3664c0.60262-0.27376 1.0579-0.83776 1.1449-1.4184 0.19638-1.3095-0.78704-2.327-2.125-2.1984-2.0002 0.1922-2.3475 2.9842-0.45511 3.6589 0.54233 0.19337 0.94267 0.18162 1.4351-0.04209z" fill-opacity="0" stroke-width=".11768" style="paint-order:fill markers stroke"/>
<path d="m21.854 12.864c-1.4364-0.67192-1.505-2.5491-0.11768-3.2207 0.55461-0.26848 1.1019-0.27529 1.6023-0.019915 0.47474 0.2423 0.69275 0.47763 0.89837 0.96973 0.21538 0.51548 0.20054 0.85906-0.0604 1.3981-0.41877 0.86507-1.4836 1.2652-2.3226 0.87276z" fill-opacity="0" stroke-width=".11768" style="paint-order:fill markers stroke"/>
<path d="m21.854 12.864c-1.4364-0.67192-1.505-2.5491-0.11768-3.2207 0.55461-0.26848 1.1019-0.27529 1.6023-0.019915 0.47474 0.2423 0.69275 0.47763 0.89837 0.96973 0.21538 0.51548 0.20054 0.85906-0.0604 1.3981-0.41877 0.86507-1.4836 1.2652-2.3226 0.87276z" fill-opacity="0" stroke-width=".11768" style="paint-order:fill markers stroke"/>
<path d="m21.854 12.864c-1.4364-0.67192-1.505-2.5491-0.11768-3.2207 0.55461-0.26848 1.1019-0.27529 1.6023-0.019915 0.47474 0.2423 0.69275 0.47763 0.89837 0.96973 0.21538 0.51548 0.20054 0.85906-0.0604 1.3981-0.41877 0.86507-1.4836 1.2652-2.3226 0.87276z" fill-opacity="0" stroke-width=".11768" style="paint-order:fill markers stroke"/>
<path d="m21.854 12.864c-1.4364-0.67192-1.505-2.5491-0.11768-3.2207 0.55461-0.26848 1.1019-0.27529 1.6023-0.019915 0.47474 0.2423 0.69275 0.47763 0.89837 0.96973 0.21538 0.51548 0.20054 0.85906-0.0604 1.3981-0.41877 0.86507-1.4836 1.2652-2.3226 0.87276z" fill-opacity="0" stroke-width=".11768" style="paint-order:fill markers stroke"/>
<path d="m21.854 12.864c-1.4364-0.67192-1.505-2.5491-0.11768-3.2207 0.55461-0.26848 1.1019-0.27529 1.6023-0.019915 0.47474 0.2423 0.69275 0.47763 0.89837 0.96973 0.21538 0.51548 0.20054 0.85906-0.0604 1.3981-0.41877 0.86507-1.4836 1.2652-2.3226 0.87276z" fill-opacity="0" stroke-width=".11768" style="paint-order:fill markers stroke"/>
<path d="m21.854 12.864c-1.4364-0.67192-1.505-2.5491-0.11768-3.2207 0.55461-0.26848 1.1019-0.27529 1.6023-0.019915 0.47474 0.2423 0.69275 0.47763 0.89837 0.96973 0.21538 0.51548 0.20054 0.85906-0.0604 1.3981-0.41877 0.86507-1.4836 1.2652-2.3226 0.87276z" fill-opacity="0" stroke-width=".11768" style="paint-order:fill markers stroke"/>
<path d="m21.854 12.864c-1.4364-0.67192-1.505-2.5491-0.11768-3.2207 0.55461-0.26848 1.1019-0.27529 1.6023-0.019915 0.47474 0.2423 0.69275 0.47763 0.89837 0.96973 0.21538 0.51548 0.20054 0.85906-0.0604 1.3981-0.41877 0.86507-1.4836 1.2652-2.3226 0.87276z" fill-opacity="0" stroke-width=".11768" style="paint-order:fill markers stroke"/>
<path d="m21.854 12.864c-1.4364-0.67192-1.505-2.5491-0.11768-3.2207 0.55461-0.26848 1.1019-0.27529 1.6023-0.019915 0.47474 0.2423 0.69275 0.47763 0.89837 0.96973 0.21538 0.51548 0.20054 0.85906-0.0604 1.3981-0.41877 0.86507-1.4836 1.2652-2.3226 0.87276z" fill-opacity="0" stroke-width=".11768" style="paint-order:fill markers stroke"/>
<path id="a" d="m44.958 23.151c-1.4364-0.67192-1.505-2.5491-0.11767-3.2207 0.55461-0.26848 1.1019-0.27529 1.6023-0.01991 0.47474 0.2423 0.69275 0.47763 0.89837 0.96973 0.21538 0.51548 0.20054 0.85906-0.0604 1.3981-0.41877 0.86507-1.4836 1.2652-2.3226 0.87276z" fill-opacity="0" stroke-width=".11768" style="paint-order:fill markers stroke"/>
<use transform="translate(-34.561 -12.339)" width="100%" height="100%" fill="#ffffff" xlink:href="#a"/>
<use transform="translate(-32.883 -10.798)" width="100%" height="100%" fill="#ffffff" xlink:href="#a"/>
<use transform="translate(-28.537 -10.166)" width="100%" height="100%" fill="#ffffff" xlink:href="#a"/>
<use transform="translate(-30.098 -12.436)" width="100%" height="100%" fill="#ffffff" xlink:href="#a"/>
<use transform="translate(-28.001 -8.9279)" width="100%" height="100%" fill="#ffffff" xlink:href="#a"/>
<use transform="translate(-32.195 -11.98)" width="100%" height="100%" fill="#ffffff" xlink:href="#a"/>
<use transform="translate(-32.513 -11.376)" width="100%" height="100%" fill="#ffffff" xlink:href="#a"/>
<use transform="translate(-29.849 -14.698)" width="100%" height="100%" fill="#ffffff" xlink:href="#a"/>
<use transform="translate(-27.519 -12.028)" width="100%" height="100%" fill="#ffffff" xlink:href="#a"/>
<use transform="translate(-29.769 -9.92)" width="100%" height="100%" fill="#ffffff" xlink:href="#a"/>
<use transform="translate(-32.331 -10.047)" width="100%" height="100%" fill="#ffffff" xlink:href="#a"/>
<use transform="translate(-35.828 -6.5028)" width="100%" height="100%" fill="#ffffff" xlink:href="#a"/>
<use transform="translate(-32.835 -7.2622)" width="100%" height="100%" fill="#ffffff" xlink:href="#a"/>
<use transform="translate(-32.705 -8.1517)" width="100%" height="100%" fill="#ffffff" xlink:href="#a"/>
<g fill="#fff" fill-opacity="0" fill-rule="evenodd" stroke-width="1.136" style="paint-order:fill markers stroke">
<path d="m27.31 6.0117 18.126-31.496v23.588l-18.126 12.173z" points="45.435421,-25.48439 45.435421,-1.8964478 27.309819,10.276517 27.309819,6.0117312 "/>
<path d="m25.508 5.8482v4.4208l1.8018 0.0075v-4.2648z" points="25.50798,10.269032 27.309819,10.276517 27.309819,6.0117312 25.50798,5.8482425 "/>
<path d="m25.508 5.8482 12.378-40.055 7.5499 8.7219-18.126 31.496z" points="37.88549,-34.206304 45.435421,-25.48439 27.309819,6.0117312 25.50798,5.8482425 "/>
<path d="m25.508 10.269 12.378-15.167 7.5499 3.0017-18.126 12.173z" points="37.88549,-4.8981098 45.435421,-1.8964478 27.309819,10.276517 25.50798,10.269032 "/>
<path d="m37.885-34.206v29.308l7.5499 3.0017v-23.588z" points="37.88549,-4.8981098 45.435421,-1.8964478 45.435421,-25.48439 37.88549,-34.206304 "/>
<path d="m25.508 5.8482 12.378-40.055v29.308l-12.378 15.167z" points="37.88549,-34.206304 37.88549,-4.8981098 25.50798,10.269032 25.50798,5.8482425 "/>
</g>
<g fill="#fff" fill-opacity="0" fill-rule="evenodd" stroke-width="1.136" style="paint-order:fill markers stroke">
<path d="m45.086 2.7767 17.168-8.0309v24.704l-17.168-2.8594z" points="62.254078,-5.2542002 62.254078,19.449635 45.085894,16.590188 45.085894,2.7766568 "/>
<path d="m37.6 0.94479v17.098l7.4854-1.4525v-13.814z" points="37.600482,18.042706 45.085894,16.590188 45.085894,2.7766568 37.600482,0.94479034 "/>
<path d="m37.6 18.043 17.163 6.1002 7.4907-4.6933-17.168-2.8594z" points="54.763363,24.142923 62.254078,19.449635 45.085894,16.590188 37.600482,18.042706 "/>
<path d="m37.6 0.94479 17.163-14.433 7.4907 8.2345-17.168 8.0309z" points="54.763363,-13.488662 62.254078,-5.2542002 45.085894,2.7766568 37.600482,0.94479034 "/>
<path d="m54.763-13.489v37.632l7.4907-4.6933v-24.704z" points="54.763363,24.142923 62.254078,19.449635 62.254078,-5.2542002 54.763363,-13.488662 "/>
<path d="m37.6 0.94479 17.163-14.433v37.632l-17.163-6.1002z" points="54.763363,-13.488662 54.763363,24.142923 37.600482,18.042706 37.600482,0.94479034 "/>
</g>
<g transform="matrix(.023215 0 0 .023215 51.101 -1.1872)" fill="#fff">
<g fill="#fff">
<g fill="#fff">
<g fill="#fff">
<path d="m503.87 324.49c0-23.875-13.649-40.873-33.694-48.502-1.228-0.467-1.228-0.467-2.455-0.934-0.944-0.359-0.944-0.359-1.887-0.717-21.201-8.058-30.716-11.863-42.14-17.116-13.949-6.416-25.143-11.454-33.357-14.95-6.638-2.837-11.183-4.605-13.85-5.336-0.013-4e-3 -0.026-7e-3 -0.039-0.011-0.159-0.043-0.317-0.086-0.463-0.121-0.192-0.048-0.373-0.09-0.538-0.124-7e-3 -1e-3 -0.015-4e-3 -0.022-5e-3 -1.478-0.297-11.549-6.036-25.899-14.563l0.538-0.538c3.278-3.278 3.278-8.592 0-11.87s-8.592-3.278-11.87 0l-3.515 3.515c-6.865-4.14-14.225-8.612-21.783-13.231l1.627-1.627c3.278-3.278 3.278-8.592 0-11.87s-8.592-3.278-11.87 0l-4.47 4.47c-5.521-3.399-11.039-6.811-16.45-10.17l1.446-1.446c3.278-3.278 3.278-8.592 0-11.87s-8.592-3.278-11.87 0l-4.2 4.2c-0.38-0.238-0.755-0.473-1.133-0.71-2.683-1.681-5.308-3.33-7.85-4.933-0.057-0.036-0.117-0.073-0.174-0.11-0.045-0.028-0.089-0.056-0.134-0.084-1.751-1.104-3.46-2.184-5.13-3.242-0.42-0.266-0.834-0.529-1.249-0.792-14.285-9.059-25.229-16.201-29.277-19.239-1.225-0.918-2.504-1.707-3.833-2.372-5.751-2.88-12.431-3.444-19.658-2.192-5.99 1.038-12.149 3.28-18.334 6.356-4.632 2.304-8.396 4.601-10.897 6.325-0.222 0.153-0.45 0.309-0.652 0.452-0.013 0.011-0.027 0.022-0.04 0.033-4.426 3.677-8.343 6.81-12.659 10.133-0.294 0.226-0.567 0.467-0.82 0.719-44.57 34.332-70.066 37.51-82.794 24.83-1.961-1.953-3.156-3.854-3.691-5.033-2.943-17.566-8.279-27.66-17.168-30.69-7.037-2.399-13.394 0.238-19.029 5.316-2.179 1.964-3.815 3.897-4.851 5.349-31.757 52.658-33.825 102.96-18.383 146.49 1.661 4.683 3.333 8.731 4.896 12.116-3.426 3.074-5.595 7.521-5.595 12.485v16.779c0 9.276 7.516 16.787 16.787 16.787l426.4 8e-3c7.423 0.274 16.066-0.598 24.625-3.633 16.668-5.911 27.293-18.532 27.406-38.278 0-0.019 3e-3 -0.037 3e-3 -0.056zm-117.89-65.812c-10.829 15.725-32.234 20.257-48.553 10.011l-161.7-101.53c1.064-0.875 2.134-1.76 3.211-2.664 0.036-0.03 0.073-0.06 0.109-0.09-0.119 0.117 0.73-0.451 1.948-1.21 2.083-1.296 4.383-2.596 6.812-3.804 4.85-2.412 9.557-4.125 13.733-4.847 3.543-0.613 6.393-0.472 8.579 0.373 0.727 0.281 1.38 0.64 1.96 1.076 4.531 3.399 15.682 10.718 30.107 19.885 4.005 2.545 8.26 5.231 12.7 8.018l-8.761 8.761c-3.278 3.278-3.278 8.592 0 11.87s8.592 3.278 11.87 0l11.508-11.508c5.384 3.343 10.903 6.751 16.458 10.163l-6.259 6.259c-3.278 3.278-3.278 8.592 0 11.87s8.592 3.278 11.87 0l9.121-9.121c7.471 4.546 14.835 8.993 21.834 13.18l-9.257 9.257c-3.278 3.278-3.278 8.592 0 11.87s8.592 3.278 11.87 0l12.285-12.285c17.376 10.219 30.552 17.585 34.182 18.783 0.202 0.067 0.374 0.115 0.516 0.143 0.021 4e-3 0.051 0.013 0.073 0.018 1.303 0.295 6.342 2.312 13.782 5.524zm-344.22-87.679c0.03 2e-3 0.926-1.058 2.068-2.087 1.583-1.427 2.565-1.834 2.375-1.898 1.386 0.472 4.141 5.807 6.158 18.367l0.357 1.42c1.144 3.296 3.609 7.654 7.912 11.94 19.285 19.212 52.339 15.704 101.06-20.577l166.81 104.74c24.606 15.449 57.082 8.022 72.541-16.585l0.475-0.758c4.684 2.111 9.772 4.429 15.162 6.908 11.882 5.464 21.636 9.364 43.19 17.556 0.943 0.358 0.943 0.358 1.885 0.717 1.225 0.466 1.225 0.466 2.449 0.932 11.406 4.341 19.468 12.592 22.019 24.42h-368.96c0.327-2.793 0.503-5.591 0.503-8.393 0-41.718-33.823-75.541-75.541-75.541-8.344 0-16.502 1.378-24.235 4.017 2.749-20.948 10.281-42.803 23.764-65.179zm-10.916 145.08c-0.995-1.996-1.956-4.074-2.885-6.26-0.02-0.048-0.041-0.094-0.061-0.143-0.401-0.947-0.794-1.924-1.184-2.915-0.135-0.343-0.269-0.691-0.403-1.041-0.289-0.754-0.574-1.524-0.856-2.306-0.09-0.25-0.182-0.495-0.271-0.748-5.123-14.458-8.164-30.593-8.119-48.011 7.824-3.735 16.358-5.709 25.167-5.709 32.447 0 58.754 26.307 58.754 58.754 0 2.786-0.216 5.582-0.642 8.393h-69.493c-2e-3 -4e-3 -5e-3 -9e-3 -7e-3 -0.014zm440.01 30.921c-6.228 2.209-12.923 2.884-18.144 2.699-0.339-0.014-427.26-0.04-427.26-0.04v-16.779h460.44c-2.187 6.974-7.319 11.385-15.031 14.12z"/>
<path d="m193.31 290.91c22.585 0 41.967-9.69 41.967-25.18 0-15.491-19.382-25.18-41.967-25.18s-41.967 9.69-41.967 25.18 19.382 25.18 41.967 25.18zm-19.987-29.544c5.024-2.512 12.204-4.03 19.987-4.03s14.962 1.518 19.987 4.03c3.706 1.853 5.194 3.611 5.194 4.364s-1.487 2.511-5.194 4.364c-5.024 2.512-12.204 4.03-19.987 4.03s-14.962-1.518-19.987-4.03c-3.706-1.853-5.194-3.611-5.194-4.364 1e-3 -0.753 1.488-2.512 5.194-4.364z"/>
</g>
</g>
</g>
</g>
<style type="text/css">.st0{fill:none;stroke:#000000;stroke-width:2;stroke-linecap:round;stroke-linejoin:round;stroke-miterlimit:10;}</style>
</svg>








